<?xml version="1.0" encoding="UTF-8"?>
<svg width="26px" height="19px" viewBox="0 0 26 19" version="1.1" xmlns="http://www.w3.org/2000/svg" xmlns:xlink="http://www.w3.org/1999/xlink">
    <!-- Generator: Sketch 45.2 (43514) - http://www.bohemiancoding.com/sketch -->
    <title>Shape</title>
    <desc>Created with Sketch.</desc>
    <defs></defs>
    <g id="Page-1" stroke="none" stroke-width="1" fill="none" fill-rule="evenodd">
        <g id="YouTube_Play_Button_Light" fill-rule="nonzero" fill="#FFFFFF">
            <path d="M25.7210707,4.33615127 C25.7210707,4.33615127 25.4665139,2.54883745 24.6893032,1.76350259 C23.7035725,0.731735065 22.5986876,0.726318962 22.0922821,0.666741835 C18.4634934,0.404060864 13.0148943,0.436557479 13.0148943,0.436557479 C13.0148943,0.436557479 7.56629518,0.404060864 3.93750651,0.666741835 C3.43110093,0.726318962 2.32621602,0.731735065 1.34048537,1.76350259 C0.563274659,2.54883745 0.308717842,4.33615127 0.308717842,4.33615127 C0.308717842,4.33615127 0.0487449224,6.43218293 0,8.53092265 L0,10.4969679 C0.0487449224,12.5957076 0.308717842,14.6917392 0.308717842,14.6917392 C0.308717842,14.6917392 0.560566608,16.4790531 1.34048537,17.2643879 C2.32621602,18.2961554 3.62337257,18.2636588 4.20018748,18.3719809 C6.23935007,18.5669606 12.7847099,18.6129974 13.0121862,18.6157055 C13.0148943,18.6157055 18.4662014,18.6238296 22.0949901,18.3611487 C22.6013957,18.3015715 23.7062806,18.2961554 24.6920112,17.2643879 C25.469222,16.4790531 25.7237788,14.6917392 25.7237788,14.6917392 C25.7237788,14.6917392 25.9837517,12.5929995 26,10.4969679 L26,8.53092265 C25.9810436,6.43218293 25.7210707,4.33615127 25.7210707,4.33615127 Z M10.3664202,13.1562742 L10.3664202,5.84453581 L17.3369441,9.50040499 L10.3664202,13.1562742 Z" id="Shape"></path>
        </g>
    </g>
</svg>