<?xml version="1.0" encoding="UTF-8" standalone="no"?>
<svg width="13px" height="23px" viewBox="0 0 13 23" version="1.1" xmlns="http://www.w3.org/2000/svg" xmlns:xlink="http://www.w3.org/1999/xlink">
    <!-- Generator: Sketch 3.6.1 (26313) - http://www.bohemiancoding.com/sketch -->
    <title>Shape Copy 2</title>
    <desc>Created with Sketch.</desc>
    <defs></defs>
    <g id="prototype" stroke="none" stroke-width="1" fill="none" fill-rule="evenodd">
        <g id="auth" transform="translate(-391.000000, -528.000000)" fill="#FFFFFF">
            <g id="Group-2" transform="translate(95.000000, 119.000000)">
                <g id="Group-3" transform="translate(79.000000, 343.000000)">
                    <g id="Oval-89-+-Oval-89-Copy-+-12-Copy-Copy" transform="translate(198.000000, 52.000000)">
                        <path d="M30.9153652,14.0445529 L28.0371109,14.0399348 C24.8034908,14.0399348 22.7137835,16.1839052 22.7137835,19.5022681 L22.7137835,22.0207695 L19.8198275,22.0207695 C19.5697553,22.0207695 19.36725,22.2235057 19.36725,22.4735779 L19.36725,26.1225994 C19.36725,26.3726716 19.5699862,26.5751769 19.8198275,26.5751769 L22.7137835,26.5751769 L22.7137835,35.7828199 C22.7137835,36.0328921 22.9162889,36.2353974 23.166361,36.2353974 L26.9421504,36.2353974 C27.1922226,36.2353974 27.3947279,36.0326612 27.3947279,35.7828199 L27.3947279,26.5751769 L30.7784374,26.5751769 C31.0285096,26.5751769 31.2310149,26.3726716 31.2310149,26.1225994 L31.2324004,22.4735779 C31.2324004,22.3535063 31.1846027,22.2385147 31.0998598,22.153541 C31.015117,22.0685672 30.8996636,22.0207695 30.779592,22.0207695 L27.3947279,22.0207695 L27.3947279,19.8858044 C27.3947279,18.8596542 27.6392583,18.3387283 28.9759783,18.3387283 L30.9149034,18.3380356 C31.1647447,18.3380356 31.36725,18.1352993 31.36725,17.8854581 L31.36725,14.4971304 C31.36725,14.2475201 31.1649756,14.0450147 30.9153652,14.0445529 L30.9153652,14.0445529 Z" id="Shape-Copy-2"></path>
                    </g>
                </g>
            </g>
        </g>
    </g>
</svg>