<?xml version="1.0" encoding="UTF-8" standalone="no"?>
<svg width="25px" height="20px" viewBox="0 0 25 20" version="1.1" xmlns="http://www.w3.org/2000/svg" xmlns:xlink="http://www.w3.org/1999/xlink">
    <!-- Generator: Sketch 3.6.1 (26313) - http://www.bohemiancoding.com/sketch -->
    <title>Shape Copy</title>
    <desc>Created with Sketch.</desc>
    <defs></defs>
    <g id="prototype" stroke="none" stroke-width="1" fill="none" fill-rule="evenodd">
        <g id="auth" transform="translate(-451.000000, -530.000000)" fill="#FFFFFF">
            <g id="Group-2" transform="translate(95.000000, 119.000000)">
                <g id="Group-3" transform="translate(79.000000, 343.000000)">
                    <g id="Oval-89-+-Oval-89-Copy-+-12-Copy-Copy-Copy" transform="translate(264.000000, 52.000000)">
                        <path d="M37.5,18.5249837 C36.6166652,18.9163961 35.6688598,19.1818475 34.673015,19.3003575 C35.6898402,18.6914546 36.4681944,17.7256491 36.837097,16.5783531 C35.8832915,17.1422363 34.8304662,17.551688 33.7086605,17.7736491 C32.8103453,16.8153338 31.5325785,16.2184309 30.1153213,16.2184309 C27.3963364,16.2184309 25.1917446,18.4230228 25.1917446,21.1405174 C25.1917446,21.5259298 25.2352349,21.9023618 25.319235,22.2623231 C21.2280126,22.0568326 17.6002028,20.0967118 15.1721596,17.1182363 C14.7477275,17.8441198 14.5062762,18.6899251 14.5062762,19.5927894 C14.5062762,21.3009882 15.3761207,22.8082064 16.6958876,23.6900117 C15.8890235,23.6630313 15.1301595,23.4410702 14.4658055,23.0721284 L14.4658055,23.1336187 C14.4658055,25.5181716 16.1634945,27.5082925 18.414557,27.9612344 C18.002125,28.072215 17.5672223,28.1337053 17.1173,28.1337053 C16.7993779,28.1337053 16.4919265,28.102215 16.190475,28.0422149 C16.8173388,29.9993554 18.635028,31.4225734 20.7886394,31.4615931 C19.1044405,32.7813599 16.9808292,33.5657142 14.6742764,33.5657142 C14.276864,33.5657142 13.8854124,33.5417141 13.5,33.4982239 C15.6791016,34.897481 18.2661254,35.7133255 21.0466006,35.7133255 C30.1033997,35.7133255 35.053996,28.2117054 35.053996,21.7059301 L35.0374862,21.0685565 C36.0047819,20.3786338 36.8416068,19.5118088 37.5,18.5249837 L37.5,18.5249837 Z" id="Shape-Copy"></path>
                    </g>
                </g>
            </g>
        </g>
    </g>
</svg>