<?xml version="1.0" encoding="UTF-8"?>
<svg width="22px" height="22px" viewBox="0 0 22 22" version="1.1" xmlns="http://www.w3.org/2000/svg" xmlns:xlink="http://www.w3.org/1999/xlink">
    <!-- Generator: Sketch 46.1 (44463) - http://www.bohemiancoding.com/sketch -->
    <title>Combined Shape</title>
    <desc>Created with Sketch.</desc>
    <defs></defs>
    <g id="Page-1" stroke="none" stroke-width="1" fill="none" fill-rule="evenodd">
        <g id="footer-copy" transform="translate(-335.000000, -354.000000)" fill="#FFFFFF">
            <g id="Group-7">
                <g id="Group-2" transform="translate(290.000000, 74.000000)">
                    <g id="Group-7" transform="translate(8.000000, 280.000000)">
                        <path d="M47.594182,0.0334347816 C50.4713843,0.0334347816 50.8322013,0.0455548899 51.9621576,0.0971930525 C53.0897921,0.148691904 53.8599065,0.327753734 54.5337567,0.589613085 C55.230454,0.860341942 55.821228,1.22259851 56.4101909,1.81156148 C56.9991539,2.40052444 57.3614105,2.99139133 57.6321393,3.68804216 C57.8940916,4.36193875 58.0731534,5.13205322 58.1246058,6.25968767 C58.1761975,7.38964397 58.1883176,7.75036812 58.1883176,10.6275704 C58.1883176,13.5048655 58.1761975,13.8655897 58.1246058,14.995546 C58.0731534,16.1231804 57.8940916,16.8932949 57.6321393,17.5671915 C57.3614105,18.2638423 56.9991539,18.8547092 56.4101909,19.4436722 C55.821228,20.0326351 55.230454,20.3948917 54.5337567,20.6656206 C53.8599065,20.9274799 53.0897921,21.1065417 51.9621576,21.1580406 C50.8322013,21.2095859 50.4713843,21.2217989 47.594182,21.2217989 C44.7169798,21.2217989 44.3562092,21.2095859 43.2262529,21.1580406 C42.098572,21.1065417 41.3284575,20.9274799 40.6546538,20.6656206 C39.9579566,20.3948917 39.3671361,20.0326351 38.7781731,19.4436722 C38.1892102,18.8547092 37.8269536,18.2638423 37.5562712,17.5671915 C37.2942725,16.8932949 37.1152107,16.1231804 37.0638047,14.995546 C37.012213,13.8655897 37.0000464,13.5048655 37.0000464,10.6275704 C37.0000464,7.75036812 37.012213,7.38964397 37.0638047,6.25968767 C37.1152107,5.13205322 37.2942725,4.36193875 37.5562712,3.68804216 C37.8269536,2.99139133 38.1892102,2.40052444 38.7781731,1.81156148 C39.3671361,1.22259851 39.9579566,0.860341942 40.6546538,0.589613085 C41.3284575,0.327753734 42.098572,0.148691904 43.2262529,0.0971930525 C44.3562092,0.0455548899 44.7169798,0.0334347816 47.594182,0.0334347816 Z M47.594182,5.18735992 C44.589649,5.18735992 42.1539716,7.62308376 42.1539716,10.6275704 C42.1539716,13.6321963 44.589649,16.0678273 47.594182,16.0678273 C50.5987151,16.0678273 53.0343925,13.6321963 53.0343925,10.6275704 C53.0343925,7.62308376 50.5987151,5.18735992 47.594182,5.18735992 Z M47.594182,14.1589799 C45.6438662,14.1589799 44.0627725,12.5779326 44.0627725,10.6275704 C44.0627725,8.67725456 45.6438662,7.09620733 47.594182,7.09620733 C49.5445443,7.09620733 51.1255915,8.67725456 51.1255915,10.6275704 C51.1255915,12.5779326 49.5445443,14.1589799 47.594182,14.1589799 Z M54.5207078,4.97240214 C54.5207078,4.27027173 53.9515271,3.70109101 53.2493967,3.70109101 C52.5473127,3.70109101 51.9780856,4.27027173 51.9780856,4.97240214 C51.9780856,5.67448611 52.5473127,6.24371327 53.2493967,6.24371327 C53.9515271,6.24371327 54.5207078,5.67448611 54.5207078,4.97240214 Z" id="Combined-Shape"></path>
                    </g>
                </g>
            </g>
        </g>
    </g>
</svg>